<?xml version="1.0" encoding="UTF-8" standalone="no"?>
<!DOCTYPE svg PUBLIC "-//W3C//DTD SVG 1.1//EN"
 "http://www.w3.org/Graphics/SVG/1.1/DTD/svg11.dtd">
<!-- Generated by graphviz version 2.40.1 (20161225.0304)
 -->
<!-- Title: dependencies Pages: 1 -->
<svg width="708pt" height="284pt"
 viewBox="0.00 0.00 708.00 284.00" xmlns="http://www.w3.org/2000/svg" xmlns:xlink="http://www.w3.org/1999/xlink">
<g id="graph0" class="graph" transform="scale(1 1) rotate(0) translate(4 280)">
<title>dependencies</title>
<polygon fill="#ffffff" stroke="transparent" points="-4,4 -4,-280 704,-280 704,4 -4,4"/>
<text text-anchor="start" x="329.0091" y="-42.4" font-family="sans-serif" font-weight="bold" font-size="14.00" fill="#000000">Legend</text>
<polygon fill="#ffffb3" stroke="transparent" points="116,-10 116,-30 136,-30 136,-10 116,-10"/>
<text text-anchor="start" x="139.629" y="-15.4" font-family="sans-serif" font-size="14.00" fill="#000000"> &#160;Declarations</text>
<polygon fill="#8dd3c7" stroke="transparent" points="229,-10 229,-30 249,-30 249,-10 229,-10"/>
<text text-anchor="start" x="252.7251" y="-15.4" font-family="sans-serif" font-size="14.00" fill="#000000"> &#160;Module</text>
<polygon fill="#80b1d3" stroke="transparent" points="315,-10 315,-30 335,-30 335,-10 315,-10"/>
<text text-anchor="start" x="338.7812" y="-15.4" font-family="sans-serif" font-size="14.00" fill="#000000"> &#160;Bootstrap</text>
<polygon fill="#fdb462" stroke="transparent" points="412,-10 412,-30 432,-30 432,-10 412,-10"/>
<text text-anchor="start" x="435.6732" y="-15.4" font-family="sans-serif" font-size="14.00" fill="#000000"> &#160;Providers</text>
<polygon fill="#fb8072" stroke="transparent" points="508,-10 508,-30 528,-30 528,-10 508,-10"/>
<text text-anchor="start" x="531.7258" y="-15.4" font-family="sans-serif" font-size="14.00" fill="#000000"> &#160;Exports</text>
<g id="clust1" class="cluster">
<title>cluster_MainDashboardModule</title>
<polygon fill="none" stroke="#000000" stroke-dasharray="1,5" points="8,-70 8,-268 692,-268 692,-70 8,-70"/>
</g>
<g id="clust2" class="cluster">
<title>cluster_MainDashboardModule_declarations</title>
<polygon fill="none" stroke="#000000" points="496,-78 496,-130 684,-130 684,-78 496,-78"/>
</g>
<g id="clust4" class="cluster">
<title>cluster_MainDashboardModule_imports</title>
<polygon fill="none" stroke="#000000" points="342,-78 342,-130 488,-130 488,-78 342,-78"/>
</g>
<g id="clust5" class="cluster">
<title>cluster_MainDashboardModule_exports</title>
<polygon fill="none" stroke="#000000" points="240,-208 240,-260 432,-260 432,-208 240,-208"/>
</g>
<g id="clust7" class="cluster">
<title>cluster_MainDashboardModule_providers</title>
<polygon fill="none" stroke="#000000" points="16,-78 16,-130 334,-130 334,-78 16,-78"/>
</g>
<!-- MainDashboardComponent -->
<g id="node1" class="node">
<title>MainDashboardComponent</title>
<polygon fill="#ffffb3" stroke="#000000" points="675.5239,-122 504.4761,-122 504.4761,-86 675.5239,-86 675.5239,-122"/>
<text text-anchor="middle" x="590" y="-99.8" font-family="Times,serif" font-size="14.00" fill="#000000">MainDashboardComponent</text>
</g>
<!-- MainDashboardModule -->
<g id="node2" class="node">
<title>MainDashboardModule</title>
<polygon fill="#8dd3c7" stroke="#000000" points="410.7408,-187 407.7408,-191 386.7408,-191 383.7408,-187 261.2592,-187 261.2592,-151 410.7408,-151 410.7408,-187"/>
<text text-anchor="middle" x="336" y="-164.8" font-family="Times,serif" font-size="14.00" fill="#000000">MainDashboardModule</text>
</g>
<!-- MainDashboardComponent&#45;&gt;MainDashboardModule -->
<g id="edge1" class="edge">
<title>MainDashboardComponent&#45;&gt;MainDashboardModule</title>
<path fill="none" stroke="#000000" d="M590,-122.1061C590,-141.3391 590,-169 590,-169 590,-169 420.8346,-169 420.8346,-169"/>
<polygon fill="#000000" stroke="#000000" points="420.8346,-165.5001 410.8346,-169 420.8345,-172.5001 420.8346,-165.5001"/>
</g>
<!-- MainDashboardComponent  -->
<g id="node4" class="node">
<title>MainDashboardComponent </title>
<polygon fill="#fb8072" stroke="#000000" points="423.5232,-252 248.4768,-252 248.4768,-216 423.5232,-216 423.5232,-252"/>
<text text-anchor="middle" x="336" y="-229.8" font-family="Times,serif" font-size="14.00" fill="#000000">MainDashboardComponent </text>
</g>
<!-- MainDashboardModule&#45;&gt;MainDashboardComponent  -->
<g id="edge3" class="edge">
<title>MainDashboardModule&#45;&gt;MainDashboardComponent </title>
<path fill="none" stroke="#000000" stroke-dasharray="5,2" d="M336,-187.1061C336,-187.1061 336,-205.991 336,-205.991"/>
<polygon fill="#000000" stroke="#000000" points="332.5001,-205.9909 336,-215.991 339.5001,-205.991 332.5001,-205.9909"/>
</g>
<!-- UsageGraphModule -->
<g id="node3" class="node">
<title>UsageGraphModule</title>
<polygon fill="#8dd3c7" stroke="#000000" points="479.5129,-122 476.5129,-126 455.5129,-126 452.5129,-122 350.4871,-122 350.4871,-86 479.5129,-86 479.5129,-122"/>
<text text-anchor="middle" x="415" y="-99.8" font-family="Times,serif" font-size="14.00" fill="#000000">UsageGraphModule</text>
</g>
<!-- UsageGraphModule&#45;&gt;MainDashboardModule -->
<g id="edge2" class="edge">
<title>UsageGraphModule&#45;&gt;MainDashboardModule</title>
<path fill="none" stroke="#000000" d="M380.5572,-122.1061C380.5572,-122.1061 380.5572,-140.991 380.5572,-140.991"/>
<polygon fill="#000000" stroke="#000000" points="377.0572,-140.9909 380.5572,-150.991 384.0572,-140.991 377.0572,-140.9909"/>
</g>
<!-- SectionService -->
<g id="node5" class="node">
<title>SectionService</title>
<ellipse fill="#fdb462" stroke="#000000" cx="257" cy="-104" rx="68.9158" ry="18"/>
<text text-anchor="middle" x="257" y="-99.8" font-family="Times,serif" font-size="14.00" fill="#000000">SectionService</text>
</g>
<!-- SectionService&#45;&gt;MainDashboardModule -->
<g id="edge4" class="edge">
<title>SectionService&#45;&gt;MainDashboardModule</title>
<path fill="none" stroke="#000000" d="M293.5438,-119.4041C293.5438,-119.4041 293.5438,-140.9397 293.5438,-140.9397"/>
<polygon fill="#000000" stroke="#000000" points="290.0439,-140.9397 293.5438,-150.9397 297.0439,-140.9398 290.0439,-140.9397"/>
</g>
<!-- BookingService -->
<g id="node6" class="node">
<title>BookingService</title>
<ellipse fill="#fdb462" stroke="#000000" cx="97" cy="-104" rx="73.0171" ry="18"/>
<text text-anchor="middle" x="97" y="-99.8" font-family="Times,serif" font-size="14.00" fill="#000000">BookingService</text>
</g>
<!-- BookingService&#45;&gt;MainDashboardModule -->
<g id="edge5" class="edge">
<title>BookingService&#45;&gt;MainDashboardModule</title>
<path fill="none" stroke="#000000" d="M97,-122.1061C97,-141.3391 97,-169 97,-169 97,-169 251.0347,-169 251.0347,-169"/>
<polygon fill="#000000" stroke="#000000" points="251.0347,-172.5001 261.0347,-169 251.0346,-165.5001 251.0347,-172.5001"/>
</g>
</g>
</svg>
