<?xml version="1.0" encoding="UTF-8" standalone="no"?>
<!DOCTYPE svg PUBLIC "-//W3C//DTD SVG 1.1//EN"
 "http://www.w3.org/Graphics/SVG/1.1/DTD/svg11.dtd">
<!-- Generated by graphviz version 2.40.1 (20161225.0304)
 -->
<!-- Title: dependencies Pages: 1 -->
<svg width="504pt" height="211pt"
 viewBox="0.00 0.00 504.00 211.00" xmlns="http://www.w3.org/2000/svg" xmlns:xlink="http://www.w3.org/1999/xlink">
<g id="graph0" class="graph" transform="scale(1 1) rotate(0) translate(4 207)">
<title>dependencies</title>
<polygon fill="#ffffff" stroke="transparent" points="-4,4 -4,-207 500,-207 500,4 -4,4"/>
<text text-anchor="start" x="227.0091" y="-42.4" font-family="sans-serif" font-weight="bold" font-size="14.00" fill="#000000">Legend</text>
<polygon fill="#ffffb3" stroke="transparent" points="14,-10 14,-30 34,-30 34,-10 14,-10"/>
<text text-anchor="start" x="37.629" y="-15.4" font-family="sans-serif" font-size="14.00" fill="#000000"> &#160;Declarations</text>
<polygon fill="#8dd3c7" stroke="transparent" points="127,-10 127,-30 147,-30 147,-10 127,-10"/>
<text text-anchor="start" x="150.7251" y="-15.4" font-family="sans-serif" font-size="14.00" fill="#000000"> &#160;Module</text>
<polygon fill="#80b1d3" stroke="transparent" points="213,-10 213,-30 233,-30 233,-10 213,-10"/>
<text text-anchor="start" x="236.7812" y="-15.4" font-family="sans-serif" font-size="14.00" fill="#000000"> &#160;Bootstrap</text>
<polygon fill="#fdb462" stroke="transparent" points="310,-10 310,-30 330,-30 330,-10 310,-10"/>
<text text-anchor="start" x="333.6732" y="-15.4" font-family="sans-serif" font-size="14.00" fill="#000000"> &#160;Providers</text>
<polygon fill="#fb8072" stroke="transparent" points="406,-10 406,-30 426,-30 426,-10 406,-10"/>
<text text-anchor="start" x="429.7258" y="-15.4" font-family="sans-serif" font-size="14.00" fill="#000000"> &#160;Exports</text>
<g id="clust1" class="cluster">
<title>cluster_DevModule</title>
<polygon fill="none" stroke="#000000" stroke-dasharray="1,5" points="45,-70 45,-195 451,-195 451,-70 45,-70"/>
</g>
<g id="clust2" class="cluster">
<title>cluster_DevModule_declarations</title>
<polygon fill="none" stroke="#000000" points="323,-78 323,-130 443,-130 443,-78 323,-78"/>
</g>
<g id="clust4" class="cluster">
<title>cluster_DevModule_imports</title>
<polygon fill="none" stroke="#000000" points="53,-78 53,-130 315,-130 315,-78 53,-78"/>
</g>
<!-- DevComponent -->
<g id="node1" class="node">
<title>DevComponent</title>
<polygon fill="#ffffb3" stroke="#000000" points="435.1542,-122 330.8458,-122 330.8458,-86 435.1542,-86 435.1542,-122"/>
<text text-anchor="middle" x="383" y="-99.8" font-family="Times,serif" font-size="14.00" fill="#000000">DevComponent</text>
</g>
<!-- DevModule -->
<g id="node2" class="node">
<title>DevModule</title>
<polygon fill="#8dd3c7" stroke="#000000" points="284.3711,-187 281.3711,-191 260.3711,-191 257.3711,-187 201.6289,-187 201.6289,-151 284.3711,-151 284.3711,-187"/>
<text text-anchor="middle" x="243" y="-164.8" font-family="Times,serif" font-size="14.00" fill="#000000">DevModule</text>
</g>
<!-- DevComponent&#45;&gt;DevModule -->
<g id="edge1" class="edge">
<title>DevComponent&#45;&gt;DevModule</title>
<path fill="none" stroke="#000000" d="M383,-122.1061C383,-141.3391 383,-169 383,-169 383,-169 294.6256,-169 294.6256,-169"/>
<polygon fill="#000000" stroke="#000000" points="294.6256,-165.5001 284.6256,-169 294.6255,-172.5001 294.6256,-165.5001"/>
</g>
<!-- DevRoutingModule -->
<g id="node3" class="node">
<title>DevRoutingModule</title>
<polygon fill="#8dd3c7" stroke="#000000" points="306.9888,-122 303.9888,-126 282.9888,-126 279.9888,-122 179.0112,-122 179.0112,-86 306.9888,-86 306.9888,-122"/>
<text text-anchor="middle" x="243" y="-99.8" font-family="Times,serif" font-size="14.00" fill="#000000">DevRoutingModule</text>
</g>
<!-- DevRoutingModule&#45;&gt;DevModule -->
<g id="edge2" class="edge">
<title>DevRoutingModule&#45;&gt;DevModule</title>
<path fill="none" stroke="#000000" d="M243,-122.1061C243,-122.1061 243,-140.991 243,-140.991"/>
<polygon fill="#000000" stroke="#000000" points="239.5001,-140.9909 243,-150.991 246.5001,-140.991 239.5001,-140.9909"/>
</g>
<!-- NavbarModule -->
<g id="node4" class="node">
<title>NavbarModule</title>
<polygon fill="#8dd3c7" stroke="#000000" points="161.2465,-122 158.2465,-126 137.2465,-126 134.2465,-122 60.7535,-122 60.7535,-86 161.2465,-86 161.2465,-122"/>
<text text-anchor="middle" x="111" y="-99.8" font-family="Times,serif" font-size="14.00" fill="#000000">NavbarModule</text>
</g>
<!-- NavbarModule&#45;&gt;DevModule -->
<g id="edge3" class="edge">
<title>NavbarModule&#45;&gt;DevModule</title>
<path fill="none" stroke="#000000" d="M111,-122.1061C111,-141.3391 111,-169 111,-169 111,-169 191.5965,-169 191.5965,-169"/>
<polygon fill="#000000" stroke="#000000" points="191.5966,-172.5001 201.5965,-169 191.5965,-165.5001 191.5966,-172.5001"/>
</g>
</g>
</svg>
