<?xml version="1.0" encoding="UTF-8" standalone="no"?>
<!DOCTYPE svg PUBLIC "-//W3C//DTD SVG 1.1//EN"
 "http://www.w3.org/Graphics/SVG/1.1/DTD/svg11.dtd">
<!-- Generated by graphviz version 2.40.1 (20161225.0304)
 -->
<!-- Title: dependencies Pages: 1 -->
<svg width="510pt" height="284pt"
 viewBox="0.00 0.00 510.00 284.00" xmlns="http://www.w3.org/2000/svg" xmlns:xlink="http://www.w3.org/1999/xlink">
<g id="graph0" class="graph" transform="scale(1 1) rotate(0) translate(4 280)">
<title>dependencies</title>
<polygon fill="#ffffff" stroke="transparent" points="-4,4 -4,-280 506,-280 506,4 -4,4"/>
<text text-anchor="start" x="230.0091" y="-42.4" font-family="sans-serif" font-weight="bold" font-size="14.00" fill="#000000">Legend</text>
<polygon fill="#ffffb3" stroke="transparent" points="17,-10 17,-30 37,-30 37,-10 17,-10"/>
<text text-anchor="start" x="40.629" y="-15.4" font-family="sans-serif" font-size="14.00" fill="#000000"> &#160;Declarations</text>
<polygon fill="#8dd3c7" stroke="transparent" points="130,-10 130,-30 150,-30 150,-10 130,-10"/>
<text text-anchor="start" x="153.7251" y="-15.4" font-family="sans-serif" font-size="14.00" fill="#000000"> &#160;Module</text>
<polygon fill="#80b1d3" stroke="transparent" points="216,-10 216,-30 236,-30 236,-10 216,-10"/>
<text text-anchor="start" x="239.7812" y="-15.4" font-family="sans-serif" font-size="14.00" fill="#000000"> &#160;Bootstrap</text>
<polygon fill="#fdb462" stroke="transparent" points="313,-10 313,-30 333,-30 333,-10 313,-10"/>
<text text-anchor="start" x="336.6732" y="-15.4" font-family="sans-serif" font-size="14.00" fill="#000000"> &#160;Providers</text>
<polygon fill="#fb8072" stroke="transparent" points="409,-10 409,-30 429,-30 429,-10 409,-10"/>
<text text-anchor="start" x="432.7258" y="-15.4" font-family="sans-serif" font-size="14.00" fill="#000000"> &#160;Exports</text>
<g id="clust1" class="cluster">
<title>cluster_GivePunishModule</title>
<polygon fill="none" stroke="#000000" stroke-dasharray="1,5" points="8,-70 8,-268 494,-268 494,-70 8,-70"/>
</g>
<g id="clust2" class="cluster">
<title>cluster_GivePunishModule_declarations</title>
<polygon fill="none" stroke="#000000" points="324,-78 324,-130 486,-130 486,-78 324,-78"/>
</g>
<g id="clust5" class="cluster">
<title>cluster_GivePunishModule_exports</title>
<polygon fill="none" stroke="#000000" points="159,-208 159,-260 325,-260 325,-208 159,-208"/>
</g>
<g id="clust7" class="cluster">
<title>cluster_GivePunishModule_providers</title>
<polygon fill="none" stroke="#000000" points="16,-78 16,-130 316,-130 316,-78 16,-78"/>
</g>
<!-- GivePunishComponent -->
<g id="node1" class="node">
<title>GivePunishComponent</title>
<polygon fill="#ffffb3" stroke="#000000" points="478.1624,-122 331.8376,-122 331.8376,-86 478.1624,-86 478.1624,-122"/>
<text text-anchor="middle" x="405" y="-99.8" font-family="Times,serif" font-size="14.00" fill="#000000">GivePunishComponent</text>
</g>
<!-- GivePunishModule -->
<g id="node2" class="node">
<title>GivePunishModule</title>
<polygon fill="#8dd3c7" stroke="#000000" points="304.3795,-187 301.3795,-191 280.3795,-191 277.3795,-187 179.6205,-187 179.6205,-151 304.3795,-151 304.3795,-187"/>
<text text-anchor="middle" x="242" y="-164.8" font-family="Times,serif" font-size="14.00" fill="#000000">GivePunishModule</text>
</g>
<!-- GivePunishComponent&#45;&gt;GivePunishModule -->
<g id="edge1" class="edge">
<title>GivePunishComponent&#45;&gt;GivePunishModule</title>
<path fill="none" stroke="#000000" d="M405,-122.1061C405,-141.3391 405,-169 405,-169 405,-169 314.5539,-169 314.5539,-169"/>
<polygon fill="#000000" stroke="#000000" points="314.5539,-165.5001 304.5539,-169 314.5539,-172.5001 314.5539,-165.5001"/>
</g>
<!-- GivePunishComponent  -->
<g id="node3" class="node">
<title>GivePunishComponent </title>
<polygon fill="#fb8072" stroke="#000000" points="317.1621,-252 166.8379,-252 166.8379,-216 317.1621,-216 317.1621,-252"/>
<text text-anchor="middle" x="242" y="-229.8" font-family="Times,serif" font-size="14.00" fill="#000000">GivePunishComponent </text>
</g>
<!-- GivePunishModule&#45;&gt;GivePunishComponent  -->
<g id="edge2" class="edge">
<title>GivePunishModule&#45;&gt;GivePunishComponent </title>
<path fill="none" stroke="#000000" stroke-dasharray="5,2" d="M242,-187.1061C242,-187.1061 242,-205.991 242,-205.991"/>
<polygon fill="#000000" stroke="#000000" points="238.5001,-205.9909 242,-215.991 245.5001,-205.991 238.5001,-205.9909"/>
</g>
<!-- PunishService -->
<g id="node4" class="node">
<title>PunishService</title>
<ellipse fill="#fdb462" stroke="#000000" cx="242" cy="-104" rx="66.0704" ry="18"/>
<text text-anchor="middle" x="242" y="-99.8" font-family="Times,serif" font-size="14.00" fill="#000000">PunishService</text>
</g>
<!-- PunishService&#45;&gt;GivePunishModule -->
<g id="edge3" class="edge">
<title>PunishService&#45;&gt;GivePunishModule</title>
<path fill="none" stroke="#000000" d="M242,-122.1061C242,-122.1061 242,-140.991 242,-140.991"/>
<polygon fill="#000000" stroke="#000000" points="238.5001,-140.9909 242,-150.991 245.5001,-140.991 238.5001,-140.9909"/>
</g>
<!-- AdminService -->
<g id="node5" class="node">
<title>AdminService</title>
<ellipse fill="#fdb462" stroke="#000000" cx="91" cy="-104" rx="66.6325" ry="18"/>
<text text-anchor="middle" x="91" y="-99.8" font-family="Times,serif" font-size="14.00" fill="#000000">AdminService</text>
</g>
<!-- AdminService&#45;&gt;GivePunishModule -->
<g id="edge4" class="edge">
<title>AdminService&#45;&gt;GivePunishModule</title>
<path fill="none" stroke="#000000" d="M91,-122.1061C91,-141.3391 91,-169 91,-169 91,-169 169.2742,-169 169.2742,-169"/>
<polygon fill="#000000" stroke="#000000" points="169.2743,-172.5001 179.2742,-169 169.2742,-165.5001 169.2743,-172.5001"/>
</g>
</g>
</svg>
