<?xml version="1.0" encoding="UTF-8" standalone="no"?>
<!DOCTYPE svg PUBLIC "-//W3C//DTD SVG 1.1//EN"
 "http://www.w3.org/Graphics/SVG/1.1/DTD/svg11.dtd">
<!-- Generated by graphviz version 2.40.1 (20161225.0304)
 -->
<!-- Title: dependencies Pages: 1 -->
<svg width="504pt" height="284pt"
 viewBox="0.00 0.00 504.00 284.00" xmlns="http://www.w3.org/2000/svg" xmlns:xlink="http://www.w3.org/1999/xlink">
<g id="graph0" class="graph" transform="scale(1 1) rotate(0) translate(4 280)">
<title>dependencies</title>
<polygon fill="#ffffff" stroke="transparent" points="-4,4 -4,-280 500,-280 500,4 -4,4"/>
<text text-anchor="start" x="227.0091" y="-42.4" font-family="sans-serif" font-weight="bold" font-size="14.00" fill="#000000">Legend</text>
<polygon fill="#ffffb3" stroke="transparent" points="14,-10 14,-30 34,-30 34,-10 14,-10"/>
<text text-anchor="start" x="37.629" y="-15.4" font-family="sans-serif" font-size="14.00" fill="#000000"> &#160;Declarations</text>
<polygon fill="#8dd3c7" stroke="transparent" points="127,-10 127,-30 147,-30 147,-10 127,-10"/>
<text text-anchor="start" x="150.7251" y="-15.4" font-family="sans-serif" font-size="14.00" fill="#000000"> &#160;Module</text>
<polygon fill="#80b1d3" stroke="transparent" points="213,-10 213,-30 233,-30 233,-10 213,-10"/>
<text text-anchor="start" x="236.7812" y="-15.4" font-family="sans-serif" font-size="14.00" fill="#000000"> &#160;Bootstrap</text>
<polygon fill="#fdb462" stroke="transparent" points="310,-10 310,-30 330,-30 330,-10 310,-10"/>
<text text-anchor="start" x="333.6732" y="-15.4" font-family="sans-serif" font-size="14.00" fill="#000000"> &#160;Providers</text>
<polygon fill="#fb8072" stroke="transparent" points="406,-10 406,-30 426,-30 426,-10 406,-10"/>
<text text-anchor="start" x="429.7258" y="-15.4" font-family="sans-serif" font-size="14.00" fill="#000000"> &#160;Exports</text>
<g id="clust1" class="cluster">
<title>cluster_NavbarModule</title>
<polygon fill="none" stroke="#000000" stroke-dasharray="1,5" points="96,-70 96,-268 400,-268 400,-70 96,-70"/>
</g>
<g id="clust2" class="cluster">
<title>cluster_NavbarModule_declarations</title>
<polygon fill="none" stroke="#000000" points="254,-78 254,-130 392,-130 392,-78 254,-78"/>
</g>
<g id="clust5" class="cluster">
<title>cluster_NavbarModule_exports</title>
<polygon fill="none" stroke="#000000" points="177,-208 177,-260 319,-260 319,-208 177,-208"/>
</g>
<g id="clust7" class="cluster">
<title>cluster_NavbarModule_providers</title>
<polygon fill="none" stroke="#000000" points="104,-78 104,-130 246,-130 246,-78 104,-78"/>
</g>
<!-- NavbarComponent -->
<g id="node1" class="node">
<title>NavbarComponent</title>
<polygon fill="#ffffb3" stroke="#000000" points="384.0297,-122 261.9703,-122 261.9703,-86 384.0297,-86 384.0297,-122"/>
<text text-anchor="middle" x="323" y="-99.8" font-family="Times,serif" font-size="14.00" fill="#000000">NavbarComponent</text>
</g>
<!-- NavbarModule -->
<g id="node2" class="node">
<title>NavbarModule</title>
<polygon fill="#8dd3c7" stroke="#000000" points="298.2465,-187 295.2465,-191 274.2465,-191 271.2465,-187 197.7535,-187 197.7535,-151 298.2465,-151 298.2465,-187"/>
<text text-anchor="middle" x="248" y="-164.8" font-family="Times,serif" font-size="14.00" fill="#000000">NavbarModule</text>
</g>
<!-- NavbarComponent&#45;&gt;NavbarModule -->
<g id="edge1" class="edge">
<title>NavbarComponent&#45;&gt;NavbarModule</title>
<path fill="none" stroke="#000000" d="M280.0544,-122.1061C280.0544,-122.1061 280.0544,-140.991 280.0544,-140.991"/>
<polygon fill="#000000" stroke="#000000" points="276.5544,-140.9909 280.0544,-150.991 283.5544,-140.991 276.5544,-140.9909"/>
</g>
<!-- NavbarComponent  -->
<g id="node3" class="node">
<title>NavbarComponent </title>
<polygon fill="#fb8072" stroke="#000000" points="311.0288,-252 184.9712,-252 184.9712,-216 311.0288,-216 311.0288,-252"/>
<text text-anchor="middle" x="248" y="-229.8" font-family="Times,serif" font-size="14.00" fill="#000000">NavbarComponent </text>
</g>
<!-- NavbarModule&#45;&gt;NavbarComponent  -->
<g id="edge2" class="edge">
<title>NavbarModule&#45;&gt;NavbarComponent </title>
<path fill="none" stroke="#000000" stroke-dasharray="5,2" d="M248,-187.1061C248,-187.1061 248,-205.991 248,-205.991"/>
<polygon fill="#000000" stroke="#000000" points="244.5001,-205.9909 248,-215.991 251.5001,-205.991 244.5001,-205.9909"/>
</g>
<!-- LoginService -->
<g id="node4" class="node">
<title>LoginService</title>
<ellipse fill="#fdb462" stroke="#000000" cx="175" cy="-104" rx="63.1209" ry="18"/>
<text text-anchor="middle" x="175" y="-99.8" font-family="Times,serif" font-size="14.00" fill="#000000">LoginService</text>
</g>
<!-- LoginService&#45;&gt;NavbarModule -->
<g id="edge3" class="edge">
<title>LoginService&#45;&gt;NavbarModule</title>
<path fill="none" stroke="#000000" d="M217.8437,-117.468C217.8437,-117.468 217.8437,-140.8642 217.8437,-140.8642"/>
<polygon fill="#000000" stroke="#000000" points="214.3438,-140.8641 217.8437,-150.8642 221.3438,-140.8642 214.3438,-140.8641"/>
</g>
</g>
</svg>
