<?xml version="1.0" encoding="UTF-8" standalone="no"?>
<!DOCTYPE svg PUBLIC "-//W3C//DTD SVG 1.1//EN"
 "http://www.w3.org/Graphics/SVG/1.1/DTD/svg11.dtd">
<!-- Generated by graphviz version 2.40.1 (20161225.0304)
 -->
<!-- Title: dependencies Pages: 1 -->
<svg width="504pt" height="211pt"
 viewBox="0.00 0.00 504.00 211.00" xmlns="http://www.w3.org/2000/svg" xmlns:xlink="http://www.w3.org/1999/xlink">
<g id="graph0" class="graph" transform="scale(1 1) rotate(0) translate(4 207)">
<title>dependencies</title>
<polygon fill="#ffffff" stroke="transparent" points="-4,4 -4,-207 500,-207 500,4 -4,4"/>
<text text-anchor="start" x="227.0091" y="-42.4" font-family="sans-serif" font-weight="bold" font-size="14.00" fill="#000000">Legend</text>
<polygon fill="#ffffb3" stroke="transparent" points="14,-10 14,-30 34,-30 34,-10 14,-10"/>
<text text-anchor="start" x="37.629" y="-15.4" font-family="sans-serif" font-size="14.00" fill="#000000"> &#160;Declarations</text>
<polygon fill="#8dd3c7" stroke="transparent" points="127,-10 127,-30 147,-30 147,-10 127,-10"/>
<text text-anchor="start" x="150.7251" y="-15.4" font-family="sans-serif" font-size="14.00" fill="#000000"> &#160;Module</text>
<polygon fill="#80b1d3" stroke="transparent" points="213,-10 213,-30 233,-30 233,-10 213,-10"/>
<text text-anchor="start" x="236.7812" y="-15.4" font-family="sans-serif" font-size="14.00" fill="#000000"> &#160;Bootstrap</text>
<polygon fill="#fdb462" stroke="transparent" points="310,-10 310,-30 330,-30 330,-10 310,-10"/>
<text text-anchor="start" x="333.6732" y="-15.4" font-family="sans-serif" font-size="14.00" fill="#000000"> &#160;Providers</text>
<polygon fill="#fb8072" stroke="transparent" points="406,-10 406,-30 426,-30 426,-10 406,-10"/>
<text text-anchor="start" x="429.7258" y="-15.4" font-family="sans-serif" font-size="14.00" fill="#000000"> &#160;Exports</text>
<g id="clust1" class="cluster">
<title>cluster_CancelDetailModule</title>
<polygon fill="none" stroke="#000000" stroke-dasharray="1,5" points="8,-70 8,-195 488,-195 488,-70 8,-70"/>
</g>
<g id="clust2" class="cluster">
<title>cluster_CancelDetailModule_declarations</title>
<polygon fill="none" stroke="#000000" points="310,-78 310,-130 480,-130 480,-78 310,-78"/>
</g>
<g id="clust4" class="cluster">
<title>cluster_CancelDetailModule_imports</title>
<polygon fill="none" stroke="#000000" points="186,-78 186,-130 302,-130 302,-78 186,-78"/>
</g>
<g id="clust7" class="cluster">
<title>cluster_CancelDetailModule_providers</title>
<polygon fill="none" stroke="#000000" points="16,-78 16,-130 178,-130 178,-78 16,-78"/>
</g>
<!-- CancelDetailComponent -->
<g id="node1" class="node">
<title>CancelDetailComponent</title>
<polygon fill="#ffffb3" stroke="#000000" points="472.4115,-122 317.5885,-122 317.5885,-86 472.4115,-86 472.4115,-122"/>
<text text-anchor="middle" x="395" y="-99.8" font-family="Times,serif" font-size="14.00" fill="#000000">CancelDetailComponent</text>
</g>
<!-- CancelDetailModule -->
<g id="node2" class="node">
<title>CancelDetailModule</title>
<polygon fill="#8dd3c7" stroke="#000000" points="310.1289,-187 307.1289,-191 286.1289,-191 283.1289,-187 177.8711,-187 177.8711,-151 310.1289,-151 310.1289,-187"/>
<text text-anchor="middle" x="244" y="-164.8" font-family="Times,serif" font-size="14.00" fill="#000000">CancelDetailModule</text>
</g>
<!-- CancelDetailComponent&#45;&gt;CancelDetailModule -->
<g id="edge1" class="edge">
<title>CancelDetailComponent&#45;&gt;CancelDetailModule</title>
<path fill="none" stroke="#000000" d="M317.644,-104C308.5023,-104 302.3437,-104 302.3437,-104 302.3437,-104 302.3437,-140.8939 302.3437,-140.8939"/>
<polygon fill="#000000" stroke="#000000" points="298.8437,-140.8938 302.3437,-150.8939 305.8437,-140.8939 298.8437,-140.8938"/>
</g>
<!-- NavbarModule -->
<g id="node3" class="node">
<title>NavbarModule</title>
<polygon fill="#8dd3c7" stroke="#000000" points="294.2465,-122 291.2465,-126 270.2465,-126 267.2465,-122 193.7535,-122 193.7535,-86 294.2465,-86 294.2465,-122"/>
<text text-anchor="middle" x="244" y="-99.8" font-family="Times,serif" font-size="14.00" fill="#000000">NavbarModule</text>
</g>
<!-- NavbarModule&#45;&gt;CancelDetailModule -->
<g id="edge2" class="edge">
<title>NavbarModule&#45;&gt;CancelDetailModule</title>
<path fill="none" stroke="#000000" d="M244,-122.1061C244,-122.1061 244,-140.991 244,-140.991"/>
<polygon fill="#000000" stroke="#000000" points="240.5001,-140.9909 244,-150.991 247.5001,-140.991 240.5001,-140.9909"/>
</g>
<!-- BookingService -->
<g id="node4" class="node">
<title>BookingService</title>
<ellipse fill="#fdb462" stroke="#000000" cx="97" cy="-104" rx="73.0171" ry="18"/>
<text text-anchor="middle" x="97" y="-99.8" font-family="Times,serif" font-size="14.00" fill="#000000">BookingService</text>
</g>
<!-- BookingService&#45;&gt;CancelDetailModule -->
<g id="edge3" class="edge">
<title>BookingService&#45;&gt;CancelDetailModule</title>
<path fill="none" stroke="#000000" d="M170.617,-104C179.5837,-104 185.6564,-104 185.6564,-104 185.6564,-104 185.6564,-140.8939 185.6564,-140.8939"/>
<polygon fill="#000000" stroke="#000000" points="182.1564,-140.8938 185.6564,-150.8939 189.1564,-140.8939 182.1564,-140.8938"/>
</g>
</g>
</svg>
