<?xml version="1.0" encoding="UTF-8" standalone="no"?>
<!DOCTYPE svg PUBLIC "-//W3C//DTD SVG 1.1//EN"
 "http://www.w3.org/Graphics/SVG/1.1/DTD/svg11.dtd">
<!-- Generated by graphviz version 2.40.1 (20161225.0304)
 -->
<!-- Title: dependencies Pages: 1 -->
<svg width="782pt" height="211pt"
 viewBox="0.00 0.00 782.00 211.00" xmlns="http://www.w3.org/2000/svg" xmlns:xlink="http://www.w3.org/1999/xlink">
<g id="graph0" class="graph" transform="scale(1 1) rotate(0) translate(4 207)">
<title>dependencies</title>
<polygon fill="#ffffff" stroke="transparent" points="-4,4 -4,-207 778,-207 778,4 -4,4"/>
<text text-anchor="start" x="366.0091" y="-42.4" font-family="sans-serif" font-weight="bold" font-size="14.00" fill="#000000">Legend</text>
<polygon fill="#ffffb3" stroke="transparent" points="153,-10 153,-30 173,-30 173,-10 153,-10"/>
<text text-anchor="start" x="176.629" y="-15.4" font-family="sans-serif" font-size="14.00" fill="#000000"> &#160;Declarations</text>
<polygon fill="#8dd3c7" stroke="transparent" points="266,-10 266,-30 286,-30 286,-10 266,-10"/>
<text text-anchor="start" x="289.7251" y="-15.4" font-family="sans-serif" font-size="14.00" fill="#000000"> &#160;Module</text>
<polygon fill="#80b1d3" stroke="transparent" points="352,-10 352,-30 372,-30 372,-10 352,-10"/>
<text text-anchor="start" x="375.7812" y="-15.4" font-family="sans-serif" font-size="14.00" fill="#000000"> &#160;Bootstrap</text>
<polygon fill="#fdb462" stroke="transparent" points="449,-10 449,-30 469,-30 469,-10 449,-10"/>
<text text-anchor="start" x="472.6732" y="-15.4" font-family="sans-serif" font-size="14.00" fill="#000000"> &#160;Providers</text>
<polygon fill="#fb8072" stroke="transparent" points="545,-10 545,-30 565,-30 565,-10 545,-10"/>
<text text-anchor="start" x="568.7258" y="-15.4" font-family="sans-serif" font-size="14.00" fill="#000000"> &#160;Exports</text>
<g id="clust1" class="cluster">
<title>cluster_ReportModule</title>
<polygon fill="none" stroke="#000000" stroke-dasharray="1,5" points="8,-70 8,-195 766,-195 766,-70 8,-70"/>
</g>
<g id="clust2" class="cluster">
<title>cluster_ReportModule_declarations</title>
<polygon fill="none" stroke="#000000" points="622,-78 622,-130 758,-130 758,-78 622,-78"/>
</g>
<g id="clust4" class="cluster">
<title>cluster_ReportModule_imports</title>
<polygon fill="none" stroke="#000000" points="337,-78 337,-130 614,-130 614,-78 337,-78"/>
</g>
<g id="clust7" class="cluster">
<title>cluster_ReportModule_providers</title>
<polygon fill="none" stroke="#000000" points="16,-78 16,-130 329,-130 329,-78 16,-78"/>
</g>
<!-- ReportComponent -->
<g id="node1" class="node">
<title>ReportComponent</title>
<polygon fill="#ffffb3" stroke="#000000" points="749.9356,-122 630.0644,-122 630.0644,-86 749.9356,-86 749.9356,-122"/>
<text text-anchor="middle" x="690" y="-99.8" font-family="Times,serif" font-size="14.00" fill="#000000">ReportComponent</text>
</g>
<!-- ReportModule -->
<g id="node2" class="node">
<title>ReportModule</title>
<polygon fill="#8dd3c7" stroke="#000000" points="443.6528,-187 440.6528,-191 419.6528,-191 416.6528,-187 346.3472,-187 346.3472,-151 443.6528,-151 443.6528,-187"/>
<text text-anchor="middle" x="395" y="-164.8" font-family="Times,serif" font-size="14.00" fill="#000000">ReportModule</text>
</g>
<!-- ReportComponent&#45;&gt;ReportModule -->
<g id="edge1" class="edge">
<title>ReportComponent&#45;&gt;ReportModule</title>
<path fill="none" stroke="#000000" d="M690,-122.2843C690,-143.3211 690,-175 690,-175 690,-175 453.7133,-175 453.7133,-175"/>
<polygon fill="#000000" stroke="#000000" points="453.7133,-171.5001 443.7133,-175 453.7132,-178.5001 453.7133,-171.5001"/>
</g>
<!-- ReportRoutingModule -->
<g id="node3" class="node">
<title>ReportRoutingModule</title>
<polygon fill="#8dd3c7" stroke="#000000" points="606.2702,-122 603.2702,-126 582.2702,-126 579.2702,-122 463.7298,-122 463.7298,-86 606.2702,-86 606.2702,-122"/>
<text text-anchor="middle" x="535" y="-99.8" font-family="Times,serif" font-size="14.00" fill="#000000">ReportRoutingModule</text>
</g>
<!-- ReportRoutingModule&#45;&gt;ReportModule -->
<g id="edge2" class="edge">
<title>ReportRoutingModule&#45;&gt;ReportModule</title>
<path fill="none" stroke="#000000" d="M535,-122.0225C535,-139.3734 535,-163 535,-163 535,-163 453.9652,-163 453.9652,-163"/>
<polygon fill="#000000" stroke="#000000" points="453.9652,-159.5001 443.9652,-163 453.9652,-166.5001 453.9652,-159.5001"/>
</g>
<!-- NavbarModule -->
<g id="node4" class="node">
<title>NavbarModule</title>
<polygon fill="#8dd3c7" stroke="#000000" points="445.2465,-122 442.2465,-126 421.2465,-126 418.2465,-122 344.7535,-122 344.7535,-86 445.2465,-86 445.2465,-122"/>
<text text-anchor="middle" x="395" y="-99.8" font-family="Times,serif" font-size="14.00" fill="#000000">NavbarModule</text>
</g>
<!-- NavbarModule&#45;&gt;ReportModule -->
<g id="edge3" class="edge">
<title>NavbarModule&#45;&gt;ReportModule</title>
<path fill="none" stroke="#000000" d="M395,-122.1061C395,-122.1061 395,-140.991 395,-140.991"/>
<polygon fill="#000000" stroke="#000000" points="391.5001,-140.9909 395,-150.991 398.5001,-140.991 391.5001,-140.9909"/>
</g>
<!-- BookingService -->
<g id="node5" class="node">
<title>BookingService</title>
<ellipse fill="#fdb462" stroke="#000000" cx="248" cy="-104" rx="73.0171" ry="18"/>
<text text-anchor="middle" x="248" y="-99.8" font-family="Times,serif" font-size="14.00" fill="#000000">BookingService</text>
</g>
<!-- BookingService&#45;&gt;ReportModule -->
<g id="edge4" class="edge">
<title>BookingService&#45;&gt;ReportModule</title>
<path fill="none" stroke="#000000" d="M248,-122.0225C248,-139.3734 248,-163 248,-163 248,-163 336.0511,-163 336.0511,-163"/>
<polygon fill="#000000" stroke="#000000" points="336.0512,-166.5001 346.0511,-163 336.0511,-159.5001 336.0512,-166.5001"/>
</g>
<!-- ReportService -->
<g id="node6" class="node">
<title>ReportService</title>
<ellipse fill="#fdb462" stroke="#000000" cx="90" cy="-104" rx="66.0492" ry="18"/>
<text text-anchor="middle" x="90" y="-99.8" font-family="Times,serif" font-size="14.00" fill="#000000">ReportService</text>
</g>
<!-- ReportService&#45;&gt;ReportModule -->
<g id="edge5" class="edge">
<title>ReportService&#45;&gt;ReportModule</title>
<path fill="none" stroke="#000000" d="M90,-122.2843C90,-143.3211 90,-175 90,-175 90,-175 336.3346,-175 336.3346,-175"/>
<polygon fill="#000000" stroke="#000000" points="336.3346,-178.5001 346.3346,-175 336.3346,-171.5001 336.3346,-178.5001"/>
</g>
</g>
</svg>
