<?xml version="1.0" encoding="UTF-8" standalone="no"?>
<!DOCTYPE svg PUBLIC "-//W3C//DTD SVG 1.1//EN"
 "http://www.w3.org/Graphics/SVG/1.1/DTD/svg11.dtd">
<!-- Generated by graphviz version 2.40.1 (20161225.0304)
 -->
<!-- Title: dependencies Pages: 1 -->
<svg width="504pt" height="284pt"
 viewBox="0.00 0.00 504.00 284.00" xmlns="http://www.w3.org/2000/svg" xmlns:xlink="http://www.w3.org/1999/xlink">
<g id="graph0" class="graph" transform="scale(1 1) rotate(0) translate(4 280)">
<title>dependencies</title>
<polygon fill="#ffffff" stroke="transparent" points="-4,4 -4,-280 500,-280 500,4 -4,4"/>
<text text-anchor="start" x="227.0091" y="-42.4" font-family="sans-serif" font-weight="bold" font-size="14.00" fill="#000000">Legend</text>
<polygon fill="#ffffb3" stroke="transparent" points="14,-10 14,-30 34,-30 34,-10 14,-10"/>
<text text-anchor="start" x="37.629" y="-15.4" font-family="sans-serif" font-size="14.00" fill="#000000"> &#160;Declarations</text>
<polygon fill="#8dd3c7" stroke="transparent" points="127,-10 127,-30 147,-30 147,-10 127,-10"/>
<text text-anchor="start" x="150.7251" y="-15.4" font-family="sans-serif" font-size="14.00" fill="#000000"> &#160;Module</text>
<polygon fill="#80b1d3" stroke="transparent" points="213,-10 213,-30 233,-30 233,-10 213,-10"/>
<text text-anchor="start" x="236.7812" y="-15.4" font-family="sans-serif" font-size="14.00" fill="#000000"> &#160;Bootstrap</text>
<polygon fill="#fdb462" stroke="transparent" points="310,-10 310,-30 330,-30 330,-10 310,-10"/>
<text text-anchor="start" x="333.6732" y="-15.4" font-family="sans-serif" font-size="14.00" fill="#000000"> &#160;Providers</text>
<polygon fill="#fb8072" stroke="transparent" points="406,-10 406,-30 426,-30 426,-10 406,-10"/>
<text text-anchor="start" x="429.7258" y="-15.4" font-family="sans-serif" font-size="14.00" fill="#000000"> &#160;Exports</text>
<g id="clust1" class="cluster">
<title>cluster_SectionManageModule</title>
<polygon fill="none" stroke="#000000" stroke-dasharray="1,5" points="67,-70 67,-268 429,-268 429,-70 67,-70"/>
</g>
<g id="clust2" class="cluster">
<title>cluster_SectionManageModule_declarations</title>
<polygon fill="none" stroke="#000000" points="237,-78 237,-130 421,-130 421,-78 237,-78"/>
</g>
<g id="clust5" class="cluster">
<title>cluster_SectionManageModule_exports</title>
<polygon fill="none" stroke="#000000" points="154,-208 154,-260 342,-260 342,-208 154,-208"/>
</g>
<g id="clust7" class="cluster">
<title>cluster_SectionManageModule_providers</title>
<polygon fill="none" stroke="#000000" points="75,-78 75,-130 229,-130 229,-78 75,-78"/>
</g>
<!-- SectionManageComponent -->
<g id="node1" class="node">
<title>SectionManageComponent</title>
<polygon fill="#ffffb3" stroke="#000000" points="413.4143,-122 244.5857,-122 244.5857,-86 413.4143,-86 413.4143,-122"/>
<text text-anchor="middle" x="329" y="-99.8" font-family="Times,serif" font-size="14.00" fill="#000000">SectionManageComponent</text>
</g>
<!-- SectionManageModule -->
<g id="node2" class="node">
<title>SectionManageModule</title>
<polygon fill="#8dd3c7" stroke="#000000" points="321.1317,-187 318.1317,-191 297.1317,-191 294.1317,-187 174.8683,-187 174.8683,-151 321.1317,-151 321.1317,-187"/>
<text text-anchor="middle" x="248" y="-164.8" font-family="Times,serif" font-size="14.00" fill="#000000">SectionManageModule</text>
</g>
<!-- SectionManageComponent&#45;&gt;SectionManageModule -->
<g id="edge1" class="edge">
<title>SectionManageComponent&#45;&gt;SectionManageModule</title>
<path fill="none" stroke="#000000" d="M283.0544,-122.1061C283.0544,-122.1061 283.0544,-140.991 283.0544,-140.991"/>
<polygon fill="#000000" stroke="#000000" points="279.5544,-140.9909 283.0544,-150.991 286.5544,-140.991 279.5544,-140.9909"/>
</g>
<!-- SectionManageComponent  -->
<g id="node3" class="node">
<title>SectionManageComponent </title>
<polygon fill="#fb8072" stroke="#000000" points="333.9138,-252 162.0862,-252 162.0862,-216 333.9138,-216 333.9138,-252"/>
<text text-anchor="middle" x="248" y="-229.8" font-family="Times,serif" font-size="14.00" fill="#000000">SectionManageComponent </text>
</g>
<!-- SectionManageModule&#45;&gt;SectionManageComponent  -->
<g id="edge2" class="edge">
<title>SectionManageModule&#45;&gt;SectionManageComponent </title>
<path fill="none" stroke="#000000" stroke-dasharray="5,2" d="M248,-187.1061C248,-187.1061 248,-205.991 248,-205.991"/>
<polygon fill="#000000" stroke="#000000" points="244.5001,-205.9909 248,-215.991 251.5001,-205.991 244.5001,-205.9909"/>
</g>
<!-- SectionService -->
<g id="node4" class="node">
<title>SectionService</title>
<ellipse fill="#fdb462" stroke="#000000" cx="152" cy="-104" rx="68.9158" ry="18"/>
<text text-anchor="middle" x="152" y="-99.8" font-family="Times,serif" font-size="14.00" fill="#000000">SectionService</text>
</g>
<!-- SectionService&#45;&gt;SectionManageModule -->
<g id="edge3" class="edge">
<title>SectionService&#45;&gt;SectionManageModule</title>
<path fill="none" stroke="#000000" d="M197.8211,-117.468C197.8211,-117.468 197.8211,-140.8642 197.8211,-140.8642"/>
<polygon fill="#000000" stroke="#000000" points="194.3212,-140.8641 197.8211,-150.8642 201.3212,-140.8642 194.3212,-140.8641"/>
</g>
</g>
</svg>
