<?xml version="1.0" encoding="UTF-8" standalone="no"?>
<!DOCTYPE svg PUBLIC "-//W3C//DTD SVG 1.1//EN"
 "http://www.w3.org/Graphics/SVG/1.1/DTD/svg11.dtd">
<!-- Generated by graphviz version 2.40.1 (20161225.0304)
 -->
<!-- Title: dependencies Pages: 1 -->
<svg width="504pt" height="284pt"
 viewBox="0.00 0.00 504.00 284.00" xmlns="http://www.w3.org/2000/svg" xmlns:xlink="http://www.w3.org/1999/xlink">
<g id="graph0" class="graph" transform="scale(1 1) rotate(0) translate(4 280)">
<title>dependencies</title>
<polygon fill="#ffffff" stroke="transparent" points="-4,4 -4,-280 500,-280 500,4 -4,4"/>
<text text-anchor="start" x="227.0091" y="-42.4" font-family="sans-serif" font-weight="bold" font-size="14.00" fill="#000000">Legend</text>
<polygon fill="#ffffb3" stroke="transparent" points="14,-10 14,-30 34,-30 34,-10 14,-10"/>
<text text-anchor="start" x="37.629" y="-15.4" font-family="sans-serif" font-size="14.00" fill="#000000"> &#160;Declarations</text>
<polygon fill="#8dd3c7" stroke="transparent" points="127,-10 127,-30 147,-30 147,-10 127,-10"/>
<text text-anchor="start" x="150.7251" y="-15.4" font-family="sans-serif" font-size="14.00" fill="#000000"> &#160;Module</text>
<polygon fill="#80b1d3" stroke="transparent" points="213,-10 213,-30 233,-30 233,-10 213,-10"/>
<text text-anchor="start" x="236.7812" y="-15.4" font-family="sans-serif" font-size="14.00" fill="#000000"> &#160;Bootstrap</text>
<polygon fill="#fdb462" stroke="transparent" points="310,-10 310,-30 330,-30 330,-10 310,-10"/>
<text text-anchor="start" x="333.6732" y="-15.4" font-family="sans-serif" font-size="14.00" fill="#000000"> &#160;Providers</text>
<polygon fill="#fb8072" stroke="transparent" points="406,-10 406,-30 426,-30 426,-10 406,-10"/>
<text text-anchor="start" x="429.7258" y="-15.4" font-family="sans-serif" font-size="14.00" fill="#000000"> &#160;Exports</text>
<g id="clust1" class="cluster">
<title>cluster_AdminManageModule</title>
<polygon fill="none" stroke="#000000" stroke-dasharray="1,5" points="70,-70 70,-268 426,-268 426,-70 70,-70"/>
</g>
<g id="clust2" class="cluster">
<title>cluster_AdminManageModule_declarations</title>
<polygon fill="none" stroke="#000000" points="236,-78 236,-130 418,-130 418,-78 236,-78"/>
</g>
<g id="clust5" class="cluster">
<title>cluster_AdminManageModule_exports</title>
<polygon fill="none" stroke="#000000" points="156,-208 156,-260 340,-260 340,-208 156,-208"/>
</g>
<g id="clust7" class="cluster">
<title>cluster_AdminManageModule_providers</title>
<polygon fill="none" stroke="#000000" points="78,-78 78,-130 228,-130 228,-78 78,-78"/>
</g>
<!-- AdminManageComponent -->
<g id="node1" class="node">
<title>AdminManageComponent</title>
<polygon fill="#ffffb3" stroke="#000000" points="409.8089,-122 244.1911,-122 244.1911,-86 409.8089,-86 409.8089,-122"/>
<text text-anchor="middle" x="327" y="-99.8" font-family="Times,serif" font-size="14.00" fill="#000000">AdminManageComponent</text>
</g>
<!-- AdminManageModule -->
<g id="node2" class="node">
<title>AdminManageModule</title>
<polygon fill="#8dd3c7" stroke="#000000" points="319.5268,-187 316.5268,-191 295.5268,-191 292.5268,-187 176.4732,-187 176.4732,-151 319.5268,-151 319.5268,-187"/>
<text text-anchor="middle" x="248" y="-164.8" font-family="Times,serif" font-size="14.00" fill="#000000">AdminManageModule</text>
</g>
<!-- AdminManageComponent&#45;&gt;AdminManageModule -->
<g id="edge1" class="edge">
<title>AdminManageComponent&#45;&gt;AdminManageModule</title>
<path fill="none" stroke="#000000" d="M282.0544,-122.1061C282.0544,-122.1061 282.0544,-140.991 282.0544,-140.991"/>
<polygon fill="#000000" stroke="#000000" points="278.5544,-140.9909 282.0544,-150.991 285.5544,-140.991 278.5544,-140.9909"/>
</g>
<!-- AdminManageComponent  -->
<g id="node3" class="node">
<title>AdminManageComponent </title>
<polygon fill="#fb8072" stroke="#000000" points="332.3087,-252 163.6913,-252 163.6913,-216 332.3087,-216 332.3087,-252"/>
<text text-anchor="middle" x="248" y="-229.8" font-family="Times,serif" font-size="14.00" fill="#000000">AdminManageComponent </text>
</g>
<!-- AdminManageModule&#45;&gt;AdminManageComponent  -->
<g id="edge2" class="edge">
<title>AdminManageModule&#45;&gt;AdminManageComponent </title>
<path fill="none" stroke="#000000" stroke-dasharray="5,2" d="M248,-187.1061C248,-187.1061 248,-205.991 248,-205.991"/>
<polygon fill="#000000" stroke="#000000" points="244.5001,-205.9909 248,-215.991 251.5001,-205.991 244.5001,-205.9909"/>
</g>
<!-- AdminService -->
<g id="node4" class="node">
<title>AdminService</title>
<ellipse fill="#fdb462" stroke="#000000" cx="153" cy="-104" rx="66.6325" ry="18"/>
<text text-anchor="middle" x="153" y="-99.8" font-family="Times,serif" font-size="14.00" fill="#000000">AdminService</text>
</g>
<!-- AdminService&#45;&gt;AdminManageModule -->
<g id="edge3" class="edge">
<title>AdminService&#45;&gt;AdminManageModule</title>
<path fill="none" stroke="#000000" d="M198.0265,-117.468C198.0265,-117.468 198.0265,-140.8642 198.0265,-140.8642"/>
<polygon fill="#000000" stroke="#000000" points="194.5266,-140.8641 198.0265,-150.8642 201.5266,-140.8642 194.5266,-140.8641"/>
</g>
</g>
</svg>
